<svg xmlns="http://www.w3.org/2000/svg" viewBox="0 0 512 512" fill="none" role="img" aria-label="MyPresence app icon">
  <rect width="512" height="512" rx="112" fill="#ffffff"/>
  <g transform="translate(112,112) scale(6)">
    <path fill="#34c759" d="M8 8h14l-6 6H8V8Z"/>
    <path fill="#1b1f23" fill-rule="evenodd" clip-rule="evenodd" d="M8 8h18c6.627 0 12 5.373 12 12s-5.373 12-12 12H20v-8h6c2.209 0 4-1.791 4-4s-1.791-4-4-4h-6V8H8Zm8 10.5c-2.5 0-4.5 2-4.5 4.5s2 4.5 4.5 4.5 4.5-2 4.5-4.5-2-4.5-4.5-4.5Z"/>
  </g>
</svg>
