<svg width="220" height="220" viewBox="0 0 220 220" fill="none" xmlns="http://www.w3.org/2000/svg">
<rect width="220" height="220" rx="57" fill="#F9FAFB"/>
<path d="M129.521 40.0003C150.32 40.0005 173.974 63.2949 174.96 89.9202C176.24 124.48 146.213 144.96 130.8 144.96H88.5605C75.1205 144.96 59.44 176.96 55.9199 179.201C51.4675 182.034 46.0002 179.841 46 174.721V77.4407C46 72.0884 46 71.6804 52.7197 65.2806C65.3309 53.27 76.0687 40.0144 76.0801 40.0003H129.521ZM84.5 71.3607C80.02 71.3607 77.04 74.7003 77.04 79.5003V119.361C77.0401 121.601 79.1736 121.6 80.2402 120C80.7733 119.201 84.6006 112.96 91 112.96H124.08C135.28 112.96 143.92 103.681 143.92 92.4808C143.92 81.5954 136.88 71.3607 124.08 71.3607H84.5Z" fill="#1B1F23"/>
<mask id="path-3-outside-1_3_383" maskUnits="userSpaceOnUse" x="46" y="39" width="31" height="33" fill="black">
<rect fill="white" x="46" y="39" width="31" height="33"/>
<path d="M75.9219 61.5977C75.9055 66.0042 72.3314 69.5674 67.9248 69.5674H50.1553C48.1366 69.5674 47.6077 70.3471 47 70.999C47.986 69.6466 49.646 68.0597 52.417 65.167C62.5031 54.638 73.7787 42.4133 76.001 40L75.9219 61.5977Z"/>
</mask>
<path d="M75.9219 61.5977C75.9055 66.0042 72.3314 69.5674 67.9248 69.5674H50.1553C48.1366 69.5674 47.6077 70.3471 47 70.999C47.986 69.6466 49.646 68.0597 52.417 65.167C62.5031 54.638 73.7787 42.4133 76.001 40L75.9219 61.5977Z" fill="#34C759"/>
<path d="M75.9219 61.5977L76.4219 61.5995V61.5995L75.9219 61.5977ZM67.9248 69.5674V70.0674H67.9248L67.9248 69.5674ZM50.1553 69.5674V69.0674H50.1553L50.1553 69.5674ZM47 70.999L46.596 70.7045C46.4402 70.9182 46.4777 71.2162 46.6817 71.3846C46.8856 71.553 47.1854 71.5334 47.3657 71.34L47 70.999ZM52.417 65.167L52.7781 65.5129L52.7781 65.5129L52.417 65.167ZM76.001 40L76.501 40.0018C76.5017 39.7955 76.3757 39.6099 76.1836 39.5346C75.9916 39.4592 75.7729 39.5095 75.6332 39.6613L76.001 40ZM75.9219 61.5977L75.4219 61.5958C75.4065 65.7271 72.0558 69.0674 67.9248 69.0674L67.9248 69.5674L67.9248 70.0674C72.6071 70.0674 76.4044 66.2813 76.4219 61.5995L75.9219 61.5977ZM67.9248 69.5674V69.0674H50.1553V69.5674V70.0674H67.9248V69.5674ZM50.1553 69.5674L50.1553 69.0674C49.0787 69.0674 48.3473 69.2762 47.7912 69.6101C47.2535 69.9328 46.9083 70.3641 46.6343 70.6581L47 70.999L47.3657 71.34C47.6994 70.9821 47.9224 70.6976 48.3058 70.4675C48.6707 70.2484 49.2131 70.0674 50.1553 70.0674L50.1553 69.5674ZM47 70.999L47.404 71.2936C48.3637 69.9773 49.978 68.4359 52.7781 65.5129L52.417 65.167L52.0559 64.8211C49.3139 67.6835 47.6083 69.3159 46.596 70.7045L47 70.999ZM52.417 65.167L52.7781 65.5129C62.8678 54.98 74.1462 42.7523 76.3688 40.3387L76.001 40L75.6332 39.6613C73.4111 42.0744 62.1384 54.2959 52.0559 64.8211L52.417 65.167ZM76.001 40L75.501 39.9982L75.4219 61.5958L75.9219 61.5977L76.4219 61.5995L76.501 40.0018L76.001 40Z" fill="white" mask="url(#path-3-outside-1_3_383)"/>
</svg>
