<svg width="463" height="67" viewBox="0 0 463 67" fill="none" xmlns="http://www.w3.org/2000/svg">
<path d="M442.439 0.370819C446.093 0.370819 449.444 1.27729 452.493 3.09023C455.542 4.90316 457.986 7.34788 459.827 10.4244C461.695 13.4734 462.629 16.8658 462.629 20.6016C462.629 21.3707 462.588 22.1535 462.505 22.9501C462.395 23.9665 461.928 24.8317 461.104 25.5459C460.308 26.2326 459.401 26.576 458.385 26.576L429.584 26.6172C430.051 28.595 430.93 30.4491 432.221 32.1796C433.512 33.9102 435.078 35.3111 436.918 36.3824C438.786 37.4536 440.819 37.9893 443.016 37.9893C445.378 37.9893 447.493 37.4124 449.361 36.2587C451.229 35.1051 452.685 33.7728 453.729 32.262C454.058 31.7401 454.553 31.3006 455.212 30.9435C455.899 30.5864 456.544 30.4079 457.149 30.4079C458.275 30.4079 459.236 30.8199 460.033 31.644C460.857 32.4681 461.269 33.4432 461.269 34.5694C461.269 35.4484 461.022 36.2313 460.527 36.918C458.824 39.4176 456.476 41.5877 453.482 43.4281C450.515 45.241 447.068 46.1475 443.14 46.1475C439.981 46.1475 437.042 45.5294 434.322 44.2934C431.63 43.0573 429.282 41.3679 427.276 39.2254C425.271 37.0828 423.705 34.6244 422.579 31.85C421.481 29.0482 420.931 26.0953 420.931 22.9913C420.931 19.9972 421.481 17.1542 422.579 14.4623C423.678 11.7429 425.203 9.32563 427.153 7.21054C429.131 5.09544 431.424 3.43358 434.034 2.22496C436.643 0.988866 439.445 0.370819 442.439 0.370819ZM454.141 18.3354C453.619 15.6434 452.273 13.3498 450.103 11.4545C447.933 9.55912 445.378 8.61144 442.439 8.61144C439.445 8.61144 436.794 9.58658 434.487 11.5369C432.207 13.4871 430.669 15.7671 429.872 18.3766L454.141 18.3354Z" fill="#1B1F23"/>
<path d="M375.69 23.1562C375.69 20.1071 376.226 17.2092 377.297 14.4623C378.368 11.7154 379.879 9.27071 381.829 7.12815C383.78 4.98559 386.046 3.29626 388.628 2.06016C391.237 0.824071 394.067 0.206024 397.116 0.206024C400.137 0.206024 402.87 0.796602 405.315 1.97776C407.787 3.13145 409.902 4.6697 411.66 6.59251C413.446 8.48785 414.778 10.5617 415.657 12.8142C415.849 13.2811 415.946 13.8031 415.946 14.3799C415.946 15.5061 415.533 16.4813 414.709 17.3053C413.913 18.1019 412.951 18.5002 411.825 18.5002C411.056 18.5002 410.301 18.2393 409.559 17.7174C408.817 17.1954 408.295 16.5637 407.993 15.822C407.224 13.8443 405.878 12.1275 403.955 10.6716C402.06 9.18831 399.78 8.44665 397.116 8.44665C394.616 8.44665 392.364 9.1471 390.358 10.548C388.381 11.9214 386.815 13.7206 385.661 15.9456C384.508 18.1706 383.931 20.5741 383.931 23.1562C383.931 25.7657 384.521 28.2241 385.702 30.5315C386.884 32.8114 388.504 34.6656 390.564 36.0939C392.625 37.4949 394.946 38.1953 397.528 38.1953C400.055 38.1953 402.239 37.5635 404.079 36.3C405.919 35.0089 407.307 33.5119 408.241 31.8088C408.57 31.2045 409.092 30.6963 409.806 30.2843C410.52 29.8448 411.221 29.6251 411.908 29.6251C413.034 29.6251 413.995 30.0371 414.792 30.8611C415.616 31.6577 416.028 32.6191 416.028 33.7454C416.028 34.4321 415.849 35.1051 415.492 35.7643C413.927 38.6485 411.592 41.1482 408.488 43.2633C405.384 45.3784 401.73 46.4359 397.528 46.4359C394.396 46.4359 391.498 45.8179 388.834 44.5818C386.197 43.3182 383.889 41.6014 381.912 39.4314C379.961 37.2614 378.437 34.7892 377.338 32.0148C376.239 29.213 375.69 26.2601 375.69 23.1562Z" fill="#1B1F23"/>
<path d="M340.626 6.75733C342.11 5.30148 343.881 3.85937 345.941 2.431C348.029 1.00262 350.446 0.288435 353.193 0.288435C356.792 0.288435 359.786 1.24984 362.175 3.17265C364.565 5.068 366.323 7.27923 367.449 9.80636C368.328 11.8116 368.85 13.8031 369.015 15.7808C369.207 17.7311 369.304 19.5715 369.304 21.302V42.1096C369.304 43.2358 368.892 44.211 368.068 45.035C367.271 45.8316 366.31 46.2299 365.183 46.2299C364.057 46.2299 363.082 45.8316 362.258 45.035C361.461 44.211 361.063 43.2358 361.063 42.1096V21.302C361.063 19.6814 360.981 18.1843 360.816 16.8109C360.678 15.4375 360.376 14.2288 359.909 13.185C359.387 11.9764 358.577 10.9051 357.478 9.97117C356.38 9.00976 354.979 8.52906 353.276 8.52906C349.21 8.52906 346.079 10.081 343.881 13.185C341.711 16.289 340.64 20.478 340.667 25.752L340.709 42.192C340.709 43.3182 340.297 44.2934 339.473 45.1174C338.676 45.914 337.715 46.3123 336.588 46.3123C335.435 46.3123 334.46 45.914 333.663 45.1174C332.866 44.2934 332.468 43.3045 332.468 42.1508L332.386 4.28514C332.386 3.15892 332.688 2.19751 333.292 1.40092C333.924 0.576857 334.803 0.164825 335.929 0.164825C337.055 0.164825 337.921 0.576857 338.525 1.40092C339.129 2.19751 339.596 3.15892 339.926 4.28514L340.626 6.75733Z" fill="#1B1F23"/>
<path d="M305.81 0.370819C309.463 0.370819 312.814 1.27729 315.863 3.09023C318.912 4.90316 321.357 7.34788 323.197 10.4244C325.065 13.4734 325.999 16.8658 325.999 20.6016C325.999 21.3707 325.958 22.1535 325.876 22.9501C325.766 23.9665 325.299 24.8317 324.475 25.5459C323.678 26.2326 322.772 26.576 321.755 26.576L292.954 26.6172C293.421 28.595 294.3 30.4491 295.591 32.1796C296.882 33.9102 298.448 35.3111 300.288 36.3824C302.156 37.4536 304.189 37.9893 306.386 37.9893C308.749 37.9893 310.864 37.4124 312.732 36.2587C314.6 35.1051 316.055 33.7728 317.099 32.262C317.429 31.7401 317.923 31.3006 318.583 30.9435C319.269 30.5864 319.915 30.4079 320.519 30.4079C321.645 30.4079 322.607 30.8199 323.403 31.644C324.227 32.4681 324.639 33.4432 324.639 34.5694C324.639 35.4484 324.392 36.2313 323.898 36.918C322.195 39.4176 319.846 41.5877 316.852 43.4281C313.885 45.241 310.438 46.1475 306.51 46.1475C303.351 46.1475 300.412 45.5294 297.693 44.2934C295.001 43.0573 292.652 41.3679 290.647 39.2254C288.642 37.0828 287.076 34.6244 285.95 31.85C284.851 29.0482 284.302 26.0953 284.302 22.9913C284.302 19.9972 284.851 17.1542 285.95 14.4623C287.048 11.7429 288.573 9.32563 290.523 7.21054C292.501 5.09544 294.795 3.43358 297.404 2.22496C300.014 0.988866 302.816 0.370819 305.81 0.370819ZM317.511 18.3354C316.989 15.6434 315.643 13.3498 313.473 11.4545C311.303 9.55912 308.749 8.61144 305.81 8.61144C302.816 8.61144 300.165 9.58658 297.857 11.5369C295.577 13.4871 294.039 15.7671 293.243 18.3766L317.511 18.3354Z" fill="#1B1F23"/>
<path d="M257.849 0.164825C261.777 0.164825 265.334 1.03009 268.521 2.76062C271.735 4.46368 274.111 6.77106 275.649 9.68275C275.979 10.2596 276.143 10.9188 276.143 11.6605C276.143 12.7867 275.731 13.7619 274.907 14.5859C274.111 15.3825 273.149 15.7808 272.023 15.7808C271.336 15.7808 270.622 15.5611 269.88 15.1216C269.166 14.6546 268.658 14.1189 268.356 13.5146C267.449 11.8116 266.09 10.5343 264.277 9.68275C262.464 8.83122 260.308 8.40545 257.808 8.40545C256.352 8.40545 254.704 8.59773 252.864 8.98229C251.023 9.36686 249.43 9.9849 248.084 10.8364C246.738 11.688 246.065 12.8417 246.065 14.2975C246.065 15.3688 246.614 16.2203 247.713 16.8521C248.839 17.4564 250.213 17.9234 251.833 18.253C253.482 18.5826 255.13 18.8298 256.778 18.9947C258.426 19.132 259.772 19.2556 260.816 19.3655C262.848 19.5852 264.854 19.9286 266.831 20.3956C268.809 20.8351 270.622 21.4943 272.27 22.3733C273.918 23.2523 275.223 24.4472 276.185 25.958C277.173 27.4688 277.668 29.3916 277.668 31.7264C277.668 35.0501 276.706 37.7695 274.784 39.8846C272.861 41.9997 270.402 43.5654 267.408 44.5818C264.414 45.5981 261.283 46.1063 258.014 46.1063C253.537 46.1063 249.457 45.2273 245.777 43.4693C242.123 41.6838 239.418 39.088 237.66 35.6819C237.33 35.0227 237.165 34.3772 237.165 33.7454C237.165 32.6192 237.563 31.6577 238.36 30.8612C239.184 30.0371 240.159 29.6251 241.285 29.6251C242 29.6251 242.714 29.8585 243.428 30.3255C244.17 30.765 244.692 31.3007 244.994 31.9324C246.065 34.0201 247.713 35.5308 249.938 36.4648C252.191 37.3987 254.869 37.8657 257.973 37.8657C259.621 37.8657 261.324 37.6871 263.082 37.33C264.867 36.9455 266.364 36.3 267.573 35.3935C268.809 34.487 269.427 33.2509 269.427 31.6852C269.427 30.4766 268.892 29.6113 267.82 29.0894C266.776 28.54 265.513 28.1829 264.03 28.0181C262.574 27.8533 261.214 27.7022 259.95 27.5649C257.533 27.3177 255.034 27.0018 252.452 26.6172C249.869 26.2052 247.466 25.5597 245.241 24.6807C243.043 23.8017 241.258 22.5381 239.885 20.89C238.511 19.2419 237.824 17.0444 237.824 14.2975C237.824 11.8253 238.415 9.69648 239.596 7.91101C240.805 6.12554 242.398 4.6697 244.376 3.54348C246.353 2.38979 248.51 1.53826 250.845 0.988888C253.207 0.439513 255.542 0.164825 257.849 0.164825Z" fill="#1B1F23"/>
<path d="M210.383 0.370819C214.036 0.370819 217.388 1.27729 220.437 3.09023C223.486 4.90316 225.93 7.34788 227.771 10.4244C229.639 13.4734 230.573 16.8658 230.573 20.6016C230.573 21.3707 230.531 22.1535 230.449 22.9501C230.339 23.9665 229.872 24.8317 229.048 25.5459C228.252 26.2326 227.345 26.576 226.329 26.576L197.528 26.6172C197.995 28.595 198.874 30.4491 200.165 32.1796C201.456 33.9102 203.022 35.3111 204.862 36.3824C206.73 37.4536 208.762 37.9893 210.96 37.9893C213.322 37.9893 215.437 37.4124 217.305 36.2587C219.173 35.1051 220.629 33.7728 221.673 32.262C222.002 31.7401 222.497 31.3006 223.156 30.9435C223.843 30.5864 224.488 30.4079 225.093 30.4079C226.219 30.4079 227.18 30.8199 227.977 31.644C228.801 32.4681 229.213 33.4432 229.213 34.5694C229.213 35.4484 228.966 36.2313 228.471 36.918C226.768 39.4176 224.42 41.5877 221.426 43.4281C218.459 45.241 215.012 46.1475 211.084 46.1475C207.925 46.1475 204.986 45.5294 202.266 44.2934C199.574 43.0573 197.226 41.3679 195.22 39.2254C193.215 37.0828 191.649 34.6244 190.523 31.85C189.424 29.0482 188.875 26.0953 188.875 22.9913C188.875 19.9972 189.424 17.1542 190.523 14.4623C191.622 11.7429 193.147 9.32563 195.097 7.21054C197.075 5.09544 199.368 3.43358 201.978 2.22496C204.587 0.988866 207.389 0.370819 210.383 0.370819ZM222.085 18.3354C221.563 15.6434 220.217 13.3498 218.047 11.4545C215.877 9.55912 213.322 8.61144 210.383 8.61144C207.389 8.61144 204.738 9.58658 202.431 11.5369C200.151 13.4871 198.613 15.7671 197.816 18.3766L222.085 18.3354Z" fill="#1B1F23"/>
<path d="M187.433 5.43883C187.433 7.63633 186.375 8.85868 184.26 9.1059C183.491 9.18831 182.516 8.94109 181.335 8.36425C180.154 7.75993 178.959 7.45778 177.75 7.45778C175.36 7.45778 173.465 8.07583 172.064 9.31192C170.663 10.5205 169.661 12.1549 169.056 14.2151C168.452 16.2752 168.15 18.5826 168.15 21.1372V42.398C168.15 43.6067 167.779 44.5681 167.037 45.2822C166.323 45.9964 165.321 46.3535 164.03 46.3535C162.766 46.3535 161.763 45.9964 161.022 45.2822C160.28 44.5681 159.909 43.5929 159.909 42.3568V4.40875C159.909 3.17265 160.211 2.15631 160.816 1.35972C161.448 0.563122 162.299 0.164825 163.37 0.164825C164.002 0.164825 164.73 0.439513 165.554 0.988888C166.406 1.51079 166.996 2.41726 167.326 3.70829L167.738 6.67492C168.095 5.90579 168.782 5.01306 169.798 3.99672C170.814 2.98037 172.023 2.10137 173.424 1.35972C174.825 0.590591 176.281 0.206029 177.791 0.206029C180.593 0.206029 182.901 0.535654 184.714 1.1949C186.527 1.82668 187.433 3.24133 187.433 5.43883Z" fill="#1B1F23"/>
<path d="M153.894 23.2798C153.894 26.3837 153.317 29.4053 152.163 32.3445C151.037 35.2836 149.334 37.8794 147.054 40.1319C145.049 42.0821 142.741 43.5929 140.132 44.6642C137.522 45.7355 134.817 46.2711 132.015 46.2711C129.158 46.2711 126.617 45.6668 124.392 44.4582C122.195 43.2496 120.203 41.6152 118.418 39.555V56.9015C118.418 58.0277 118.006 58.9892 117.182 59.7857C116.385 60.6098 115.424 61.0218 114.297 61.0218C113.171 61.0218 112.196 60.6098 111.372 59.7857C110.575 58.9892 110.177 58.0277 110.177 56.9015V4.28514C110.177 3.15892 110.575 2.19751 111.372 1.40092C112.196 0.576857 113.171 0.164825 114.297 0.164825C115.424 0.164825 116.261 0.576857 116.811 1.40092C117.388 2.19751 117.758 3.15892 117.923 4.28514L118.418 7.62259C119.983 5.37015 122.044 3.59842 124.598 2.30739C127.18 1.01636 129.749 0.370841 132.303 0.370841C135.407 0.370841 138.264 0.988888 140.873 2.22498C143.51 3.46108 145.804 5.1504 147.754 7.29297C149.705 9.40806 151.215 11.839 152.287 14.5859C153.358 17.3328 153.894 20.2307 153.894 23.2798ZM132.386 8.61147C130.6 8.61147 128.828 9.00976 127.07 9.80636C125.312 10.5755 123.815 11.6468 122.579 13.0202C121.343 14.3662 120.382 15.9731 119.695 17.841C119.036 19.6814 118.706 21.563 118.706 23.4858C118.706 26.1228 119.283 28.5538 120.437 30.7787C121.59 33.0037 123.184 34.7892 125.216 36.1352C127.249 37.4811 129.57 38.1541 132.18 38.1541C134.789 38.1541 137.11 37.4537 139.143 36.0527C141.176 34.6244 142.769 32.784 143.922 30.5315C145.104 28.2516 145.694 25.8344 145.694 23.2798C145.694 20.6977 145.117 18.2942 143.964 16.0692C142.81 13.8443 141.231 12.0451 139.225 10.6716C137.22 9.29818 134.94 8.61147 132.386 8.61147Z" fill="#1B1F23"/>
<path d="M67.2847 0C68.0813 0 68.8229 0.233484 69.5096 0.700453C70.2238 1.16742 70.732 1.74427 71.0342 2.43098L85.0432 34.281L97.0333 2.71941C97.3355 1.97775 97.8299 1.3597 98.5166 0.865266C99.2308 0.370828 100.014 0.123609 100.865 0.123609C101.991 0.123609 102.953 0.535641 103.749 1.3597C104.574 2.1563 104.986 3.1177 104.986 4.24392C104.986 4.82077 104.876 5.35641 104.656 5.85084L89.4932 45.4058C89.4382 45.7629 89.3421 46.0788 89.2047 46.3535C89.0674 46.6282 88.9301 46.8754 88.7927 47.0952L86.4853 52.8636C85.9085 54.292 85.2218 55.8028 84.4252 57.396C83.6286 59.0166 82.5298 60.5411 81.1289 61.9695C79.783 63.3704 78.1348 64.5516 76.1846 65.513C74.2617 66.4744 72.2428 66.9551 70.1277 66.9551C68.974 66.9551 67.9989 66.5293 67.2023 65.6778C66.4057 64.8537 66.0074 63.8786 66.0074 62.7524C66.0074 61.6536 66.3782 60.6922 67.1199 59.8681C67.889 59.0715 68.8092 58.6595 69.8805 58.632C72.2977 58.4672 74.1656 57.5196 75.4841 55.789C76.8026 54.086 77.9288 52.067 78.8628 49.7322L80.8405 44.7054L63.5352 5.89205C63.288 5.3152 63.1644 4.72463 63.1644 4.12031C63.1644 2.99409 63.5627 2.03269 64.3593 1.23609C65.1833 0.412031 66.1585 0 67.2847 0Z" fill="#34C759"/>
<path d="M17.7173 0.206029C20.3818 0.206029 22.7167 0.851544 24.7219 2.14258C26.7546 3.43361 28.4164 4.99933 29.7075 6.83973C31.2457 5.05426 33.0998 3.50228 35.2699 2.18378C37.4399 0.83781 39.8572 0.164825 42.5216 0.164825C46.0376 0.164825 48.9493 1.1125 51.2567 3.00784C53.5915 4.87572 55.3221 7.33417 56.4483 10.3832C57.5745 13.4322 58.1376 16.7285 58.1376 20.272L58.1788 42.2332C58.1788 43.332 57.7805 44.2796 56.9839 45.0762C56.1873 45.8728 55.2122 46.2711 54.0585 46.2711C52.9048 46.2711 51.9297 45.8728 51.1331 45.0762C50.3365 44.2796 49.9382 43.332 49.9382 42.2332L49.897 20.3544C49.897 18.2667 49.7047 16.3165 49.3201 14.5035C48.9356 12.6631 48.2351 11.1798 47.2188 10.0536C46.2024 8.92736 44.7329 8.36425 42.81 8.36425C40.7774 8.36425 39.0331 8.92736 37.5773 10.0536C36.1489 11.1798 35.0501 12.6631 34.281 14.5035C33.5393 16.3165 33.1685 18.2805 33.1685 20.3956L33.2097 42.3568C33.2097 43.4556 32.7977 44.4032 31.9736 45.1998C31.177 45.969 30.2156 46.3535 29.0894 46.3535C27.9357 46.3535 26.9606 45.9552 26.164 45.1586C25.3674 44.362 24.9691 43.4144 24.9691 42.3156V20.4368C24.9691 17.8547 24.5296 15.6709 23.6506 13.8855C22.7991 12.1 21.6866 10.754 20.3131 9.84756C18.9672 8.91362 17.58 8.44665 16.1516 8.44665C14.1189 8.44665 12.2923 9.39433 10.6716 11.2897C9.05095 13.185 8.24063 16.1379 8.24063 20.1483V42.3568C8.24063 43.4556 7.82859 44.4032 7.00453 45.1998C6.20794 45.969 5.24653 46.3535 4.12031 46.3535C2.99409 46.3535 2.01895 45.9552 1.19489 45.1586C0.398297 44.362 0 43.4144 0 42.3156V4.20273C0 3.07651 0.206016 2.12884 0.618047 1.35972C1.05755 0.563122 1.85414 0.164825 3.00783 0.164825C3.9143 0.164825 4.75209 0.453247 5.52122 1.03009C6.29034 1.60693 6.90839 2.56834 7.37536 3.91431L8.15822 6.18048C9.03722 4.36754 10.3832 2.92543 12.1961 1.85415C14.0365 0.755404 15.8769 0.206029 17.7173 0.206029Z" fill="#34C759"/>
</svg>
