<svg width="644" height="124" viewBox="0 0 644 124" fill="none" xmlns="http://www.w3.org/2000/svg">
<path d="M623.439 25.8708C627.093 25.8708 630.444 26.7773 633.493 28.5903C636.542 30.4032 638.986 32.8479 640.827 35.9244C642.695 38.9734 643.629 42.3658 643.629 46.1016C643.629 46.8707 643.588 47.6536 643.505 48.4502C643.395 49.4665 642.928 50.3318 642.104 51.046C641.308 51.7327 640.401 52.076 639.385 52.076L610.584 52.1172C611.051 54.095 611.93 55.9491 613.221 57.6797C614.512 59.4102 616.078 60.8111 617.918 61.8824C619.786 62.9537 621.819 63.4893 624.016 63.4893C626.378 63.4893 628.493 62.9125 630.361 61.7588C632.229 60.6051 633.685 59.2728 634.729 57.7621C635.058 57.2402 635.553 56.8007 636.212 56.4436C636.899 56.0865 637.544 55.9079 638.149 55.9079C639.275 55.9079 640.236 56.32 641.033 57.144C641.857 57.9681 642.269 58.9432 642.269 60.0694C642.269 60.9484 642.022 61.7313 641.527 62.418C639.824 64.9177 637.476 67.0877 634.482 68.9281C631.515 70.741 628.068 71.6475 624.14 71.6475C620.981 71.6475 618.042 71.0295 615.322 69.7934C612.63 68.5573 610.282 66.868 608.276 64.7254C606.271 62.5828 604.705 60.1244 603.579 57.35C602.481 54.5482 601.931 51.5953 601.931 48.4914C601.931 45.4973 602.481 42.6543 603.579 39.9623C604.678 37.2429 606.203 34.8257 608.153 32.7106C610.131 30.5955 612.424 28.9336 615.034 27.725C617.643 26.4889 620.445 25.8708 623.439 25.8708ZM635.141 43.8354C634.619 41.1435 633.273 38.8498 631.103 36.9545C628.933 35.0591 626.378 34.1115 623.439 34.1115C620.445 34.1115 617.794 35.0866 615.487 37.0369C613.207 38.9872 611.669 41.2671 610.872 43.8766L635.141 43.8354Z" fill="#1B1F23"/>
<path d="M556.69 48.6562C556.69 45.6071 557.226 42.7092 558.297 39.9623C559.368 37.2154 560.879 34.7707 562.829 32.6282C564.78 30.4856 567.046 28.7963 569.628 27.5602C572.237 26.3241 575.067 25.706 578.116 25.706C581.137 25.706 583.87 26.2966 586.315 27.4778C588.787 28.6315 590.902 30.1697 592.66 32.0925C594.446 33.9879 595.778 36.0618 596.657 38.3142C596.849 38.7812 596.946 39.3031 596.946 39.8799C596.946 41.0061 596.533 41.9813 595.709 42.8053C594.913 43.6019 593.951 44.0002 592.825 44.0002C592.056 44.0002 591.301 43.7393 590.559 43.2174C589.817 42.6955 589.295 42.0637 588.993 41.322C588.224 39.3443 586.878 37.6275 584.955 36.1716C583.06 34.6883 580.78 33.9467 578.116 33.9467C575.616 33.9467 573.364 34.6471 571.358 36.048C569.381 37.4215 567.815 39.2207 566.661 41.4456C565.508 43.6706 564.931 46.0741 564.931 48.6562C564.931 51.2657 565.521 53.7242 566.702 56.0315C567.884 58.3114 569.504 60.1656 571.564 61.594C573.625 62.9949 575.946 63.6953 578.528 63.6953C581.055 63.6953 583.239 63.0635 585.079 61.8C586.919 60.5089 588.307 59.0119 589.241 57.3088C589.57 56.7045 590.092 56.1963 590.806 55.7843C591.52 55.3448 592.221 55.1251 592.908 55.1251C594.034 55.1251 594.995 55.5371 595.792 56.3612C596.616 57.1578 597.028 58.1192 597.028 59.2454C597.028 59.9321 596.849 60.6051 596.492 61.2643C594.927 64.1486 592.592 66.6482 589.488 68.7633C586.384 70.8784 582.73 71.9359 578.528 71.9359C575.396 71.9359 572.498 71.3179 569.834 70.0818C567.197 68.8182 564.889 67.1014 562.912 64.9314C560.961 62.7614 559.437 60.2892 558.338 57.5148C557.239 54.713 556.69 51.7601 556.69 48.6562Z" fill="#1B1F23"/>
<path d="M521.626 32.2573C523.11 30.8015 524.881 29.3594 526.941 27.931C529.029 26.5026 531.446 25.7884 534.193 25.7884C537.792 25.7884 540.786 26.7498 543.175 28.6727C545.565 30.568 547.323 32.7792 548.449 35.3064C549.328 37.3116 549.85 39.3031 550.015 41.2808C550.207 43.2311 550.304 45.0715 550.304 46.802V67.6096C550.304 68.7358 549.892 69.711 549.068 70.535C548.271 71.3316 547.31 71.7299 546.183 71.7299C545.057 71.7299 544.082 71.3316 543.258 70.535C542.461 69.711 542.063 68.7358 542.063 67.6096V46.802C542.063 45.1814 541.981 43.6843 541.816 42.3109C541.678 40.9375 541.376 39.7288 540.909 38.685C540.387 37.4764 539.577 36.4051 538.478 35.4712C537.38 34.5098 535.979 34.0291 534.276 34.0291C530.21 34.0291 527.079 35.581 524.881 38.685C522.711 41.789 521.64 45.978 521.667 51.252L521.709 67.692C521.709 68.8182 521.297 69.7934 520.473 70.6174C519.676 71.414 518.715 71.8123 517.588 71.8123C516.435 71.8123 515.46 71.414 514.663 70.6174C513.866 69.7934 513.468 68.8045 513.468 67.6508L513.386 29.7851C513.386 28.6589 513.688 27.6975 514.292 26.9009C514.924 26.0769 515.803 25.6648 516.929 25.6648C518.055 25.6648 518.921 26.0769 519.525 26.9009C520.129 27.6975 520.596 28.6589 520.926 29.7851L521.626 32.2573Z" fill="#1B1F23"/>
<path d="M486.81 25.8708C490.463 25.8708 493.814 26.7773 496.863 28.5903C499.912 30.4032 502.357 32.8479 504.197 35.9244C506.065 38.9734 506.999 42.3658 506.999 46.1016C506.999 46.8707 506.958 47.6536 506.875 48.4502C506.766 49.4665 506.299 50.3318 505.475 51.046C504.678 51.7327 503.771 52.076 502.755 52.076L473.954 52.1172C474.421 54.095 475.3 55.9491 476.591 57.6797C477.882 59.4102 479.448 60.8111 481.288 61.8824C483.156 62.9537 485.189 63.4893 487.386 63.4893C489.749 63.4893 491.864 62.9125 493.732 61.7588C495.6 60.6051 497.055 59.2728 498.099 57.7621C498.429 57.2402 498.923 56.8007 499.583 56.4436C500.269 56.0865 500.915 55.9079 501.519 55.9079C502.645 55.9079 503.607 56.32 504.403 57.144C505.227 57.9681 505.639 58.9432 505.639 60.0694C505.639 60.9484 505.392 61.7313 504.898 62.418C503.195 64.9177 500.846 67.0877 497.852 68.9281C494.885 70.741 491.438 71.6475 487.51 71.6475C484.351 71.6475 481.412 71.0295 478.693 69.7934C476.001 68.5573 473.652 66.868 471.647 64.7254C469.642 62.5828 468.076 60.1244 466.95 57.35C465.851 54.5482 465.302 51.5953 465.302 48.4914C465.302 45.4973 465.851 42.6543 466.95 39.9623C468.048 37.2429 469.573 34.8257 471.523 32.7106C473.501 30.5955 475.795 28.9336 478.404 27.725C481.014 26.4889 483.815 25.8708 486.81 25.8708ZM498.511 43.8354C497.989 41.1435 496.643 38.8498 494.473 36.9545C492.303 35.0591 489.749 34.1115 486.81 34.1115C483.815 34.1115 481.165 35.0866 478.857 37.0369C476.577 38.9872 475.039 41.2671 474.243 43.8766L498.511 43.8354Z" fill="#1B1F23"/>
<path d="M438.849 25.6648C442.777 25.6648 446.334 26.5301 449.521 28.2606C452.735 29.9637 455.111 32.2711 456.649 35.1828C456.979 35.7596 457.143 36.4188 457.143 37.1605C457.143 38.2867 456.731 39.2619 455.907 40.0859C455.111 40.8825 454.149 41.2808 453.023 41.2808C452.336 41.2808 451.622 41.0611 450.88 40.6216C450.166 40.1546 449.658 39.619 449.356 39.0146C448.449 37.3116 447.09 36.0343 445.277 35.1828C443.464 34.3312 441.308 33.9055 438.808 33.9055C437.352 33.9055 435.704 34.0977 433.864 34.4823C432.023 34.8669 430.43 35.4849 429.084 36.3364C427.738 37.188 427.065 38.3417 427.065 39.7975C427.065 40.8688 427.614 41.7203 428.713 42.3521C429.839 42.9564 431.213 43.4234 432.833 43.753C434.482 44.0826 436.13 44.3298 437.778 44.4947C439.426 44.632 440.772 44.7556 441.816 44.8655C443.848 45.0852 445.854 45.4286 447.831 45.8956C449.809 46.3351 451.622 46.9943 453.27 47.8733C454.918 48.7523 456.223 49.9472 457.185 51.458C458.173 52.9688 458.668 54.8916 458.668 57.2264C458.668 60.5501 457.706 63.2695 455.784 65.3846C453.861 67.4997 451.402 69.0655 448.408 70.0818C445.414 71.0981 442.283 71.6063 439.014 71.6063C434.537 71.6063 430.457 70.7273 426.777 68.9693C423.123 67.1838 420.418 64.588 418.66 61.1819C418.33 60.5227 418.165 59.8772 418.165 59.2454C418.165 58.1192 418.563 57.1577 419.36 56.3612C420.184 55.5371 421.159 55.1251 422.285 55.1251C423 55.1251 423.714 55.3585 424.428 55.8255C425.17 56.265 425.692 56.8007 425.994 57.4324C427.065 59.5201 428.713 61.0308 430.938 61.9648C433.191 62.8987 435.869 63.3657 438.973 63.3657C440.621 63.3657 442.324 63.1871 444.082 62.83C445.867 62.4455 447.364 61.8 448.573 60.8935C449.809 59.987 450.427 58.7509 450.427 57.1852C450.427 55.9766 449.892 55.1113 448.82 54.5894C447.776 54.04 446.513 53.683 445.03 53.5181C443.574 53.3533 442.214 53.2022 440.95 53.0649C438.533 52.8177 436.034 52.5018 433.452 52.1172C430.869 51.7052 428.466 51.0597 426.241 50.1807C424.043 49.3017 422.258 48.0381 420.885 46.39C419.511 44.7419 418.824 42.5444 418.824 39.7975C418.824 37.3253 419.415 35.1965 420.596 33.411C421.805 31.6255 423.398 30.1697 425.376 29.0435C427.353 27.8898 429.51 27.0383 431.845 26.4889C434.207 25.9395 436.542 25.6648 438.849 25.6648Z" fill="#1B1F23"/>
<path d="M391.383 25.8708C395.036 25.8708 398.388 26.7773 401.437 28.5903C404.486 30.4032 406.93 32.8479 408.771 35.9244C410.639 38.9734 411.573 42.3658 411.573 46.1016C411.573 46.8707 411.531 47.6536 411.449 48.4502C411.339 49.4665 410.872 50.3318 410.048 51.046C409.252 51.7327 408.345 52.076 407.329 52.076L378.528 52.1172C378.995 54.095 379.874 55.9491 381.165 57.6797C382.456 59.4102 384.022 60.8111 385.862 61.8824C387.73 62.9537 389.762 63.4893 391.96 63.4893C394.322 63.4893 396.437 62.9125 398.305 61.7588C400.173 60.6051 401.629 59.2728 402.673 57.7621C403.002 57.2402 403.497 56.8007 404.156 56.4436C404.843 56.0865 405.488 55.9079 406.093 55.9079C407.219 55.9079 408.18 56.32 408.977 57.144C409.801 57.9681 410.213 58.9432 410.213 60.0694C410.213 60.9484 409.966 61.7313 409.471 62.418C407.768 64.9177 405.42 67.0877 402.426 68.9281C399.459 70.741 396.012 71.6475 392.084 71.6475C388.925 71.6475 385.986 71.0295 383.266 69.7934C380.574 68.5573 378.226 66.868 376.22 64.7254C374.215 62.5828 372.649 60.1244 371.523 57.35C370.424 54.5482 369.875 51.5953 369.875 48.4914C369.875 45.4973 370.424 42.6543 371.523 39.9623C372.622 37.2429 374.147 34.8257 376.097 32.7106C378.075 30.5955 380.368 28.9336 382.978 27.725C385.587 26.4889 388.389 25.8708 391.383 25.8708ZM403.085 43.8354C402.563 41.1435 401.217 38.8498 399.047 36.9545C396.877 35.0591 394.322 34.1115 391.383 34.1115C388.389 34.1115 385.738 35.0866 383.431 37.0369C381.151 38.9872 379.613 41.2671 378.816 43.8766L403.085 43.8354Z" fill="#1B1F23"/>
<path d="M368.433 30.9388C368.433 33.1363 367.375 34.3587 365.26 34.6059C364.491 34.6883 363.516 34.4411 362.335 33.8643C361.154 33.2599 359.959 32.9578 358.75 32.9578C356.36 32.9578 354.465 33.5758 353.064 34.8119C351.663 36.0205 350.661 37.6549 350.056 39.7151C349.452 41.7753 349.15 44.0826 349.15 46.6372V67.898C349.15 69.1067 348.779 70.0681 348.037 70.7823C347.323 71.4964 346.321 71.8535 345.03 71.8535C343.766 71.8535 342.763 71.4964 342.022 70.7823C341.28 70.0681 340.909 69.0929 340.909 67.8568V29.9088C340.909 28.6727 341.211 27.6563 341.816 26.8597C342.448 26.0631 343.299 25.6648 344.37 25.6648C345.002 25.6648 345.73 25.9395 346.554 26.4889C347.406 27.0108 347.996 27.9173 348.326 29.2083L348.738 32.1749C349.095 31.4058 349.782 30.5131 350.798 29.4967C351.814 28.4804 353.023 27.6014 354.424 26.8597C355.825 26.0906 357.281 25.706 358.791 25.706C361.593 25.706 363.901 26.0357 365.714 26.6949C367.527 27.3267 368.433 28.7413 368.433 30.9388Z" fill="#1B1F23"/>
<path d="M334.894 48.7798C334.894 51.8838 334.317 54.9053 333.163 57.8445C332.037 60.7836 330.334 63.3794 328.054 65.6319C326.049 67.5821 323.741 69.0929 321.132 70.1642C318.522 71.2355 315.817 71.7711 313.015 71.7711C310.158 71.7711 307.617 71.1668 305.392 69.9582C303.195 68.7496 301.203 67.1152 299.418 65.055V82.4015C299.418 83.5278 299.006 84.4892 298.182 85.2858C297.385 86.1098 296.424 86.5218 295.297 86.5218C294.171 86.5218 293.196 86.1098 292.372 85.2858C291.575 84.4892 291.177 83.5278 291.177 82.4015V29.7851C291.177 28.6589 291.575 27.6975 292.372 26.9009C293.196 26.0769 294.171 25.6648 295.297 25.6648C296.424 25.6648 297.261 26.0769 297.811 26.9009C298.388 27.6975 298.758 28.6589 298.923 29.7851L299.418 33.1226C300.983 30.8702 303.044 29.0984 305.598 27.8074C308.18 26.5164 310.749 25.8708 313.303 25.8708C316.407 25.8708 319.264 26.4889 321.873 27.725C324.51 28.9611 326.804 30.6504 328.754 32.793C330.705 34.9081 332.215 37.339 333.287 40.0859C334.358 42.8328 334.894 45.7308 334.894 48.7798ZM313.386 34.1115C311.6 34.1115 309.828 34.5098 308.07 35.3064C306.312 36.0755 304.815 37.1468 303.579 38.5202C302.343 39.8662 301.382 41.4731 300.695 43.341C300.036 45.1814 299.706 47.063 299.706 48.9858C299.706 51.6228 300.283 54.0538 301.437 56.2788C302.59 58.5037 304.184 60.2892 306.216 61.6352C308.249 62.9811 310.57 63.6541 313.18 63.6541C315.789 63.6541 318.11 62.9537 320.143 61.5528C322.176 60.1244 323.769 58.284 324.922 56.0315C326.104 53.7516 326.694 51.3344 326.694 48.7798C326.694 46.1977 326.117 43.7942 324.964 41.5692C323.81 39.3443 322.231 37.5451 320.225 36.1716C318.22 34.7982 315.94 34.1115 313.386 34.1115Z" fill="#1B1F23"/>
<path d="M248.285 25.5C249.081 25.5 249.823 25.7335 250.51 26.2005C251.224 26.6674 251.732 27.2443 252.034 27.931L266.043 59.781L278.033 28.2194C278.335 27.4778 278.83 26.8597 279.517 26.3653C280.231 25.8708 281.014 25.6236 281.865 25.6236C282.991 25.6236 283.953 26.0357 284.749 26.8597C285.574 27.6563 285.986 28.6177 285.986 29.7439C285.986 30.3208 285.876 30.8564 285.656 31.3509L270.493 70.9059C270.438 71.263 270.342 71.5788 270.205 71.8535C270.067 72.1282 269.93 72.3754 269.793 72.5952L267.485 78.3636C266.908 79.792 266.222 81.3028 265.425 82.896C264.629 84.5166 263.53 86.0411 262.129 87.4695C260.783 88.8704 259.135 90.0516 257.185 91.013C255.262 91.9744 253.243 92.4551 251.128 92.4551C249.974 92.4551 248.999 92.0293 248.202 91.1778C247.406 90.3537 247.007 89.3786 247.007 88.2524C247.007 87.1536 247.378 86.1922 248.12 85.3682C248.889 84.5716 249.809 84.1595 250.88 84.1321C253.298 83.9673 255.166 83.0196 256.484 81.2891C257.803 79.586 258.929 77.567 259.863 75.2322L261.841 70.2054L244.535 31.3921C244.288 30.8152 244.164 30.2246 244.164 29.6203C244.164 28.4941 244.563 27.5327 245.359 26.7361C246.183 25.9121 247.158 25.5 248.285 25.5Z" fill="#34C759"/>
<path d="M198.717 25.706C201.382 25.706 203.717 26.3515 205.722 27.6426C207.755 28.9336 209.416 30.4993 210.707 32.3397C212.246 30.5543 214.1 29.0023 216.27 27.6838C218.44 26.3378 220.857 25.6648 223.522 25.6648C227.038 25.6648 229.949 26.6125 232.257 28.5078C234.592 30.3757 236.322 32.8342 237.448 35.8832C238.575 38.9322 239.138 42.2285 239.138 45.772L239.179 67.7332C239.179 68.832 238.781 69.7796 237.984 70.5762C237.187 71.3728 236.212 71.7711 235.059 71.7711C233.905 71.7711 232.93 71.3728 232.133 70.5762C231.336 69.7796 230.938 68.832 230.938 67.7332L230.897 45.8544C230.897 43.7667 230.705 41.8165 230.32 40.0035C229.936 38.1631 229.235 36.6798 228.219 35.5536C227.202 34.4274 225.733 33.8643 223.81 33.8643C221.777 33.8643 220.033 34.4274 218.577 35.5536C217.149 36.6798 216.05 38.1631 215.281 40.0035C214.539 41.8165 214.169 43.7805 214.169 45.8956L214.21 67.8568C214.21 68.9556 213.798 69.9033 212.974 70.6998C212.177 71.469 211.216 71.8535 210.089 71.8535C208.936 71.8535 207.961 71.4552 207.164 70.6586C206.367 69.862 205.969 68.9144 205.969 67.8156V45.9368C205.969 43.3547 205.53 41.1709 204.651 39.3855C203.799 37.6 202.687 36.254 201.313 35.3476C199.967 34.4136 198.58 33.9467 197.152 33.9467C195.119 33.9467 193.292 34.8943 191.672 36.7897C190.051 38.685 189.241 41.6379 189.241 45.6483V67.8568C189.241 68.9556 188.829 69.9033 188.005 70.6998C187.208 71.469 186.247 71.8535 185.12 71.8535C183.994 71.8535 183.019 71.4552 182.195 70.6586C181.398 69.862 181 68.9144 181 67.8156V29.7027C181 28.5765 181.206 27.6288 181.618 26.8597C182.058 26.0631 182.854 25.6648 184.008 25.6648C184.914 25.6648 185.752 25.9533 186.521 26.5301C187.29 27.1069 187.908 28.0683 188.375 29.4143L189.158 31.6805C190.037 29.8675 191.383 28.4254 193.196 27.3542C195.037 26.2554 196.877 25.706 198.717 25.706Z" fill="#34C759"/>
<path d="M73.1611 0.500286C91.3814 0.500286 112.102 20.9006 112.966 44.2181C114.087 74.4843 87.7838 92.4202 74.2822 92.4202H37.2813C25.5082 92.4206 11.7729 120.444 8.68945 122.406C4.78924 124.887 0.000135824 122.966 1.97455e-09 118.483V33.2884C-2.02963e-06 28.6013 0.00044888 28.2445 5.88672 22.6399C16.9396 12.116 26.3496 0.500286 26.3496 0.500286H73.1611ZM33.7246 27.9642C29.8005 27.9643 27.1906 30.8887 27.1904 35.0921V70.0003C27.1904 71.962 29.0588 71.962 29.9932 70.5608C30.4596 69.8613 33.8127 64.3958 39.4189 64.3958H68.3965C78.2072 64.3956 85.7753 56.2686 85.7754 46.4602C85.7754 36.9274 79.6087 27.9644 68.3965 27.9642H33.7246Z" fill="#1B1F23"/>
<mask id="path-12-outside-1_3_357" maskUnits="userSpaceOnUse" x="-0.115234" y="-0.499981" width="27" height="29" fill="black">
<rect fill="white" x="-0.115234" y="-0.499981" width="27" height="29"/>
<path d="M26.2139 18.4238C26.1976 22.8305 22.6244 26.3945 18.2178 26.3946H3.63965C1.88314 26.3946 1.41269 27.0662 0.884766 27.6348C1.74966 26.4532 3.20224 25.0645 5.62109 22.5401C14.4557 13.3198 24.3319 2.61438 26.2793 0.500019L26.2139 18.4238Z"/>
</mask>
<path d="M26.2139 18.4238C26.1976 22.8305 22.6244 26.3945 18.2178 26.3946H3.63965C1.88314 26.3946 1.41269 27.0662 0.884766 27.6348C1.74966 26.4532 3.20224 25.0645 5.62109 22.5401C14.4557 13.3198 24.3319 2.61438 26.2793 0.500019L26.2139 18.4238Z" fill="#34C759"/>
<path d="M26.2139 18.4238L26.7139 18.4257V18.4257L26.2139 18.4238ZM18.2178 26.3946V26.8946H18.2178L18.2178 26.3946ZM3.63965 26.3946V25.8946H3.63962L3.63965 26.3946ZM0.884766 27.6348L0.481302 27.3395C0.324877 27.5532 0.362219 27.8518 0.566452 28.0204C0.770685 28.189 1.07096 28.1691 1.25116 27.975L0.884766 27.6348ZM5.62109 22.5401L5.98212 22.886H5.98212L5.62109 22.5401ZM26.2793 0.500019L26.7793 0.501844C26.78 0.295536 26.654 0.109948 26.462 0.0345784C26.2699 -0.040791 26.0513 0.00953543 25.9115 0.161288L26.2793 0.500019ZM26.2139 18.4238L25.7139 18.422C25.6986 22.5535 22.3487 25.8945 18.2178 25.8946L18.2178 26.3946L18.2178 26.8946C22.9002 26.8944 26.6965 23.1074 26.7139 18.4257L26.2139 18.4238ZM18.2178 26.3946V25.8946H3.63965V26.3946V26.8946H18.2178V26.3946ZM3.63965 26.3946L3.63962 25.8946C2.69505 25.8946 2.04477 26.076 1.54653 26.3714C1.06487 26.6569 0.755923 27.0387 0.518367 27.2946L0.884766 27.6348L1.25116 27.975C1.54153 27.6623 1.73178 27.4241 2.05644 27.2316C2.36453 27.049 2.82773 26.8946 3.63967 26.8946L3.63965 26.3946ZM0.884766 27.6348L1.28823 27.9301C2.12707 26.7841 3.53446 25.4405 5.98212 22.886L5.62109 22.5401L5.26007 22.1941C2.87002 24.6885 1.37225 26.1223 0.481302 27.3395L0.884766 27.6348ZM5.62109 22.5401L5.98212 22.886C14.8204 13.6619 24.6995 2.95338 26.6471 0.83875L26.2793 0.500019L25.9115 0.161288C23.9644 2.27539 14.091 12.9777 5.26007 22.1941L5.62109 22.5401ZM26.2793 0.500019L25.7793 0.498194L25.7139 18.422L26.2139 18.4238L26.7139 18.4257L26.7793 0.501844L26.2793 0.500019Z" fill="white" mask="url(#path-12-outside-1_3_357)"/>
</svg>
