<svg xmlns="http://www.w3.org/2000/svg" width="1200" height="630" viewBox="0 0 1200 630" role="img" aria-label="MyPresence Brand Guidelines">
  <rect width="1200" height="630" fill="#f7f8fa"/>
  <g transform="translate(420,250) scale(2.5)">
    <path fill="#34c759" d="M8 8h14l-6 6H8V8Z"/>
    <path fill="#1b1f23" fill-rule="evenodd" clip-rule="evenodd" d="M8 8h18c6.627 0 12 5.373 12 12s-5.373 12-12 12H20v-8h6c2.209 0 4-1.791 4-4s-1.791-4-4-4h-6V8H8Zm8 10.5c-2.5 0-4.5 2-4.5 4.5s2 4.5 4.5 4.5 4.5-2 4.5-4.5-2-4.5-4.5-4.5Z"/>
  </g>
  <text x="600" y="420" font-family="Geist, system-ui, sans-serif" font-size="36" font-weight="600" fill="#1b1f23" text-anchor="middle" letter-spacing="-0.02em">
    <tspan fill="#34c759">my</tspan><tspan fill="#1b1f23">presence</tspan>
  </text>
  <text x="600" y="470" font-family="Geist, system-ui, sans-serif" font-size="20" fill="#7b8190" text-anchor="middle">Brand Guidelines</text>
</svg>
